<svg xmlns="http://www.w3.org/2000/svg" width="1200" height="630" viewBox="0 0 1200 630" fill="none">
  <rect width="1200" height="630" rx="42" fill="#07111E"/>
  <circle cx="1020" cy="124" r="140" fill="#133A5E" opacity="0.42"/>
  <circle cx="190" cy="548" r="180" fill="#1E5F63" opacity="0.24"/>
  <path d="M114 124C114 101.909 131.909 84 154 84H774C796.091 84 814 101.909 814 124V506C814 528.091 796.091 546 774 546H154C131.909 546 114 528.091 114 506V124Z" fill="#0E1A2E" stroke="#8EECC8" stroke-opacity="0.18"/>
  <rect x="168" y="148" width="232" height="18" rx="9" fill="#9CF3D1" opacity="0.92"/>
  <rect x="168" y="184" width="414" height="14" rx="7" fill="#9CF3D1" opacity="0.18"/>
  <rect x="168" y="216" width="364" height="14" rx="7" fill="#9CF3D1" opacity="0.14"/>
  <rect x="168" y="292" width="214" height="118" rx="20" fill="#143A3D"/>
  <rect x="406" y="292" width="214" height="118" rx="20" fill="#102B48"/>
  <rect x="168" y="438" width="452" height="50" rx="25" fill="#9CF3D1" opacity="0.92"/>
  <path d="M208 346L244 310L274 338L314 292L362 320" stroke="#9CF3D1" stroke-width="8" stroke-linecap="round" stroke-linejoin="round"/>
  <path d="M446 328H528" stroke="#9CF3D1" stroke-width="8" stroke-linecap="round"/>
  <path d="M446 360H560" stroke="#9CF3D1" stroke-width="8" stroke-linecap="round"/>
  <path d="M446 392H508" stroke="#9CF3D1" stroke-width="8" stroke-linecap="round"/>
  <text x="683" y="198" fill="#EAF6F1" font-family="Inter, Arial, sans-serif" font-size="72" font-weight="700">NextHire AI</text>
  <text x="683" y="256" fill="#B8D6CF" font-family="Inter, Arial, sans-serif" font-size="28" font-weight="500">AI-powered interview prep</text>
  <text x="683" y="314" fill="#B8D6CF" font-family="Inter, Arial, sans-serif" font-size="28" font-weight="500">Resume analysis, planning, and practice</text>
  <rect x="683" y="362" width="302" height="64" rx="32" fill="#9CF3D1"/>
  <text x="734" y="404" fill="#07111E" font-family="Inter, Arial, sans-serif" font-size="26" font-weight="700">Portfolio preview</text>
</svg>