<svg xmlns="http://www.w3.org/2000/svg" width="800" height="800" viewBox="0 0 800 800" fill="none">
  <rect width="800" height="800" rx="72" fill="#07111E"/>
  <circle cx="628" cy="156" r="116" fill="#133A5E" opacity="0.45"/>
  <circle cx="164" cy="654" r="142" fill="#1E5F63" opacity="0.26"/>
  <path d="M156 210C156 192.327 170.327 178 188 178H612C629.673 178 644 192.327 644 210V590C644 607.673 629.673 622 612 622H188C170.327 622 156 607.673 156 590V210Z" fill="#0E1A2E" stroke="#8EECC8" stroke-opacity="0.18"/>
  <path d="M219 260H581" stroke="#8EECC8" stroke-opacity="0.28" stroke-width="4" stroke-linecap="round"/>
  <path d="M219 319H426" stroke="#8EECC8" stroke-opacity="0.16" stroke-width="4" stroke-linecap="round"/>
  <path d="M219 363H512" stroke="#8EECC8" stroke-opacity="0.16" stroke-width="4" stroke-linecap="round"/>
  <rect x="219" y="424" width="248" height="126" rx="20" fill="#143A3D"/>
  <rect x="488" y="424" width="92" height="126" rx="20" fill="#102B48"/>
  <path d="M255 482L286 451L312 477L346 438L386 460" stroke="#9CF3D1" stroke-width="8" stroke-linecap="round" stroke-linejoin="round"/>
  <path d="M519 461H547" stroke="#9CF3D1" stroke-width="8" stroke-linecap="round"/>
  <path d="M519 491H547" stroke="#9CF3D1" stroke-width="8" stroke-linecap="round"/>
  <path d="M520 521H538" stroke="#9CF3D1" stroke-width="8" stroke-linecap="round"/>
  <text x="220" y="708" fill="#EAF6F1" font-family="Inter, Arial, sans-serif" font-size="42" font-weight="700">NextHire AI</text>
</svg>