<svg xmlns="http://www.w3.org/2000/svg" width="64" height="64" viewBox="0 0 64 64" fill="none">
  <rect width="64" height="64" rx="18" fill="#0B1220"/>
  <path d="M18 45V19.5C18 17.0147 20.0147 15 22.5 15H32.5C40.5081 15 46 20.0028 46 27.25C46 33.0249 42.2928 37.4565 36.8821 39.0818L45.5 49H34.977L26.9814 39.9362H24.5V45H18Z" fill="#9CF3D1"/>
  <path d="M25 22.5H32.25C36.044 22.5 38.5 24.6551 38.5 27.75C38.5 30.8449 36.044 33 32.25 33H25V22.5Z" fill="#0B1220"/>
  <path d="M25 22.5H31.5C35.294 22.5 37.75 24.6551 37.75 27.75C37.75 30.8449 35.294 33 31.5 33H25V22.5Z" stroke="#0B1220" stroke-opacity="0.12"/>
</svg>